<svg version="1.2" xmlns="http://www.w3.org/2000/svg" viewBox="0 0 512 512" width="36" height="36">
	<title>addproducticon</title>
	<style>
		.s0 { fill: #999999 } 
	</style>
	<path id="Forma 3" fill-rule="evenodd" class="s0" d="m246 181c0 0-11 137.9 126.1 163.4 3 0.6-4 21.2-18.3 18.4q-0.2 0.1-0.5 0.2c2.4 5.8 3.7 12.3 3.7 19 0 27.6-22.4 50-50 50-27.7 0-50-22.4-50-50 0-6.7 1.3-13.1 3.7-19h-39.4c2.4 5.9 3.7 12.3 3.7 19 0 27.6-22.4 50-50 50-27.7 0-50-22.4-50-50 0-7.1 1.5-13.9 4.2-20q-0.6 0.4-1.1 0.6c-4.4 2.1-13.8-1.1-16.5-9.8-1.8-4.7-52.6-198.8-52.6-198.8 0 0-44.5 0-45.7-0.1-13.9-0.7-21.6-28.6 1.7-31.9 22.5-0.7 59.1 0.4 61.3 0.4 14.9 1.6 16.8 47.2 23.6 58.1 3.3 0.1 146.1 0.5 146.1 0.5zm-52 200.5c0-10.2-8.3-18.5-18.5-18.5-10.2 0-18.5 8.3-18.5 18.5 0 10.2 8.3 18.5 18.5 18.5 10.2 0 18.5-8.3 18.5-18.5zm132 0c0-10.2-8.3-18.5-18.5-18.5-10.2 0-18.5 8.3-18.5 18.5 0 10.2 8.3 18.5 18.5 18.5 10.2 0 18.5-8.3 18.5-18.5zm69-66.5c-65 0-117.5-52.5-117.5-117.5 0-65 52.5-117.5 117.5-117.5 65 0 117.5 52.5 117.5 117.5 0 65-52.5 117.5-117.5 117.5zm-16-134c0 0-9.8 0.1-18.4-0.2-18.6 1.1-24 26.8-2.8 31.7 12.8 0.3 21 0.3 21 0.3 0 0 0.2 16.2 0.3 20.1 2.8 21 30.3 19.2 31.3-0.3 0.1-15.5 0.6-19.7 0.6-19.7 0 0 14.7-0.1 18.6-0.1 19.6-0.7 22.7-29.5-0.3-31.9-18.7 0-18.8 0.1-18.8 0.1 0-0.1 0.4-18.3 0.1-20.2-0.2-17-30.1-22.8-31.6 1.7-0.3 15.1 0 18.5 0 18.5zm31.5 0q0 0 0 0 0 0 0 0z"/>
</svg>