<svg version="1.2" xmlns="http://www.w3.org/2000/svg" viewBox="0 0 512 512" width="80" height="80">
	<title>marcador-de-posicion</title>
	<style>
		.s0 { fill: #ffffff } 
	</style>
	<path id="Forma 2" fill-rule="evenodd" class="s0" d="m256 512c0 0-6-0.2-12-6.3-5.8-6.1-152.3-203.8-154.2-208.9-1.6-4-19-26.6-26.4-72.1-5.8-35.2 0.1-93.4 26.8-131.5 16.4-25 58.1-88.2 163.3-93.2 106.3 1.4 148.2 68.1 155.1 73.7 15.9 21.7 46.5 65.8 41.1 139.9-4 55.6-32.7 90.7-35.7 95.4-3 4.7-146.3 197-146.3 197 0 0-4.3 5.6-11.7 6zm105-317c0-58.1-46.9-105-105-105-58.1 0-105 46.9-105 105 0 58.1 46.9 105 105 105 58.1 0 105-46.9 105-105z"/>
</svg>