<svg version="1.2" xmlns="http://www.w3.org/2000/svg" viewBox="0 0 200 130" width="200" height="130">
	<title>logoRestaurante</title>
	<style>
		.s0 { fill: #ffffff } 
	</style>
	<path id="Forma 1" class="s0" d="m146.7 99.5c1.4-0.4 0.6 13.6-1.2 13.3-38.3-0.2-88.2 10.1-100 8.3-27.3-5.7-28.5-29.1-28.3-30.1 8.9 10.7 64.7 10.8 129.5 8.5zm-19.6 4.9c-15.1-0.2-71.8-0.1-71.9-0.1 2.9 2.5 65.5 1.7 71.9 0.1zm-73.1-0.4m133.4 4.2c0.9 4.4-4.4 7-7 6.5-6.2-1.2-12.8-9.6-31.5-1.5-2 1-0.5-3.9-0.3-6.6 0.1-3.9-0.1-3.8-0.1-4.8-0.3-2.3-0.2-3 2-2.3 1.6 1.1 11.4-0.4 21 1.1 5.1 0.9 3.9 1.6 10.3 2.3 1.9 0.2 5.3 3.7 5.6 5.3z"/>
	<path id="text" fill-rule="evenodd" class="s0" d="m35.4 87h-8.2q-0.8-2.5-2.6-6.4l-2.7-5.6q-3.5 0.6-9.1 4.4-6.2 4.2-6.2 7.1 0 0.3 0.1 0.5h-1.7-4.1q1.6-1.1 6.5-10.8 2-3.8 7.4-14.7 0.1-0.2 0.1-0.5 0-1.4-1.6-2.6-0.8-0.5-1.7-1.1l4.7-0.3q2.2-0.2 2.8 1 2 3.8 5.2 11.1 3.3 7.6 5.1 11.1 1.4 2.8 2.6 4.2 1.4 1.6 3.4 2.6zm-14.3-13.4l-4.7-9.1-7.9 15.1q1.6-1.8 6.1-3.7 0.9-0.4 6.5-2.3zm39.6 7.3q-2.7 4.5-2.7 7.8-2.3-1.6-9.3-1.5l-9.2 0.2q1.4-1.8 1.6-2.6l0.2-2v-19.6q0-1.6-0.8-3.1-1.1-2.1-3.3-3.1h8.5v27.5q0.1 0 0.6 0.2 0.9 0.3 2.3 0.3 6.8 0 12.1-4.1zm20.9-23.9h13.4l-1.8 1.4q-1.2 1.3-1.2 2.4v1q-0.1 0.3-0.1 2-3.5-4.5-10.3-4.5-6.1 0-9.9 3.2-4 3.5-4 9.5 0 5.5 3 9.3 3.3 4.2 8.8 4.2 7.1 0 12.3-7.8v6.1q-4.6 4-12.9 4-7.6 0-12-4-4.5-4.2-4.5-11.8 0-7.4 6.2-11.5 5.2-3.5 13-3.5zm49.7 30h-8.3q-0.7-2.5-2.6-6.4l-2.7-5.6q-3.4 0.6-9 4.4-6.2 4.2-6.2 7.1 0 0.3 0.1 0.5h-1.7-4.2q1.6-1.1 6.6-10.8 1.9-3.8 7.4-14.7 0-0.2 0-0.5 0-1.4-1.5-2.6-0.9-0.5-1.7-1.1l4.7-0.3q2.1-0.2 2.7 1 2 3.8 5.2 11.1 3.4 7.6 5.1 11.1 1.4 2.8 2.6 4.2 1.4 1.6 3.5 2.6zm-14.3-13.4l-4.7-9.1-8 15.1q1.6-1.8 6.1-3.7 1-0.4 6.6-2.3zm27.6 13.4h-7.3q1-1.3 1.3-2.2l0.1-2v-19.7q0-2.3-1.3-3.2-0.4-0.3-2.6-1-1.5-0.5-1.8-1.7l1.2-0.2h9v25.8q0 1.7 0.2 2.3 0.2 0.7 1.2 1.9zm30.3-14.9q0 6.8-4.3 11.3-4.4 4.4-11.2 4.4-2.2 0-4.6-0.6-2.7-0.7-4-1.9v1.7h-4.4v-24.7q4.3-2.8 8.1-4.4 2-0.9 6.2-0.9 6.5 0 10.4 4.3 3.8 4.2 3.8 10.8zm-5.2 0q0-5.2-2.4-8.7-2.8-4.1-7.9-4.1-3.4 0-5.9 1.8-2.7 2-2.7 5.3v16.6q1.4 1.2 4.2 1.9 2.3 0.6 4.6 0.6 4.7 0 7.6-4.5 2.5-4 2.5-8.9zm28 14.2q-0.4 0.8-1.1 0.8h-19l-0.9-0.9 2-1.1q0.7-0.7 0.8-1.1 0-0.3 0.1-1v-22q0-1.1-0.9-2l-2-1.2 0.9-0.8h19q0.6 0 1.1 0.8-1.1 1.8-1.1 2.5l0.2 1.6-1.5-0.4q-2.3-1.7-5.7-2.4l-1.2-0.1h-1.3-2l-1 0.1v9.5h12.5l-1.8 3.1-2.4 2.3q-2.3-3-6.8-3.2-0.1 0-0.6 0-0.5 0-0.7 0.1-0.2 0-0.2 0.2v13.8l1 0.1 2 0.1 1.3-0.1 1.2-0.1q3.5-0.6 5.7-2.3l1.5-0.4-0.2 1.6q0 0.7 1.1 2.5zm-136-65.5h11.3l-1.5 1.2q-1.1 1.1-1.1 2v0.9q-0.1 0.2-0.1 1.6-2.9-3.7-8.6-3.7-5.1 0-8.3 2.7-3.4 2.8-3.4 7.9 0 4.6 2.5 7.8 2.8 3.5 7.5 3.5 5.9 0 10.3-6.5v5.1q-3.9 3.4-10.8 3.4-6.4 0-10.1-3.4-3.8-3.6-3.8-9.9 0-6.2 5.1-9.7 4.5-2.9 11-2.9zm41.7 25.2h-6.9q-0.6-2.1-2.2-5.4l-2.3-4.7q-2.9 0.6-7.6 3.7-5.2 3.6-5.2 6 0 0.2 0.1 0.4h-1.4-3.5q1.4-0.9 5.5-9.1 1.6-3.2 6.2-12.3 0.1-0.2 0.1-0.4 0-1.2-1.4-2.2-0.7-0.5-1.4-0.9l4-0.3q1.8-0.1 2.3 0.8 1.7 3.3 4.4 9.3 2.8 6.5 4.2 9.4 1.2 2.3 2.2 3.5 1.2 1.4 2.9 2.2zm-12-11.3l-3.9-7.6-6.7 12.7q1.3-1.5 5.1-3.1 0.8-0.3 5.5-2zm32.6 3.9q0 3.8-3.5 5.8-2.9 1.6-7 1.6-4.1 0-8.6-1.8 1.2-2.7 1.2-3 0.2-0.6 0.2-3.3 3.1 6.2 8 6.2 5.9 0 5.9-3.6 0-3-3.5-4.3l-7.4-1.9q-4.3-1.6-4.3-5.5 0-3.2 3-5.6 1.9-1.6 3.6-2.1 1.2-0.3 3.7-0.3 3.7 0 7.3 1.6l-0.5 1q-0.4 0.6-0.6 1.4l-0.1 0.5q0.1 0.7 0.1 1.1 0 0.2 0 0.3-0.2 0.4-1 1-1.2-5-6.4-5-2.4 0-3.8 1.2-1.5 1.3-1.5 3.7 0 2.5 3.5 3.4l7.4 2.1q4.3 1.7 4.3 5.5zm30.5 7.4h-6.9q-0.7-2.1-2.3-5.4l-2.2-4.7q-2.9 0.6-7.6 3.7-5.2 3.6-5.2 6 0 0.2 0.1 0.4h-1.5-3.4q1.3-0.9 5.4-9.1 1.7-3.2 6.3-12.3 0-0.2 0-0.4 0-1.2-1.3-2.2-0.7-0.5-1.4-0.9l3.9-0.3q1.8-0.1 2.3 0.8 1.7 3.3 4.4 9.3 2.8 6.5 4.3 9.4 1.2 2.3 2.2 3.5 1.2 1.4 2.9 2.2zm-12-11.3l-4-7.6-6.7 12.7q1.4-1.5 5.2-3.1 0.8-0.3 5.5-2z"/>
</svg>